<mxfile host="app.diagrams.net" modified="2023-04-05T18:22:02.574Z" agent="Mozilla/5.0 (Windows NT 10.0; Win64; x64; rv:109.0) Gecko/20100101 Firefox/111.0" etag="ZgG5gG-ugB3-hwSu4_0P" version="21.1.4" type="device">
  <diagram name="Сторінка-1" id="riE9m8u6q3t6nOQL3ggq">
    <mxGraphModel dx="1290" dy="1707" grid="1" gridSize="10" guides="1" tooltips="1" connect="1" arrows="1" fold="1" page="1" pageScale="1" pageWidth="827" pageHeight="1169" math="0" shadow="0">
      <root>
        <mxCell id="0" />
        <mxCell id="1" parent="0" />
        <mxCell id="TobcAlVNWYBcbn0BNooz-5" style="edgeStyle=orthogonalEdgeStyle;rounded=0;orthogonalLoop=1;jettySize=auto;html=1;entryX=0;entryY=0.5;entryDx=0;entryDy=0;" edge="1" parent="1" source="TobcAlVNWYBcbn0BNooz-1" target="TobcAlVNWYBcbn0BNooz-4">
          <mxGeometry relative="1" as="geometry" />
        </mxCell>
        <mxCell id="TobcAlVNWYBcbn0BNooz-7" value="1 to many" style="edgeLabel;html=1;align=center;verticalAlign=middle;resizable=0;points=[];" vertex="1" connectable="0" parent="TobcAlVNWYBcbn0BNooz-5">
          <mxGeometry x="-0.1875" y="-2" relative="1" as="geometry">
            <mxPoint as="offset" />
          </mxGeometry>
        </mxCell>
        <mxCell id="TobcAlVNWYBcbn0BNooz-1" value="&lt;div&gt;user&lt;/div&gt;" style="rounded=1;whiteSpace=wrap;html=1;" vertex="1" parent="1">
          <mxGeometry x="170" y="90" width="120" height="60" as="geometry" />
        </mxCell>
        <mxCell id="TobcAlVNWYBcbn0BNooz-9" style="edgeStyle=orthogonalEdgeStyle;rounded=0;orthogonalLoop=1;jettySize=auto;html=1;entryX=0;entryY=0.5;entryDx=0;entryDy=0;" edge="1" parent="1" source="TobcAlVNWYBcbn0BNooz-4" target="TobcAlVNWYBcbn0BNooz-8">
          <mxGeometry relative="1" as="geometry" />
        </mxCell>
        <mxCell id="TobcAlVNWYBcbn0BNooz-10" value="1 to many" style="edgeLabel;html=1;align=center;verticalAlign=middle;resizable=0;points=[];" vertex="1" connectable="0" parent="TobcAlVNWYBcbn0BNooz-9">
          <mxGeometry x="-0.1579" y="-3" relative="1" as="geometry">
            <mxPoint as="offset" />
          </mxGeometry>
        </mxCell>
        <mxCell id="TobcAlVNWYBcbn0BNooz-4" value="&lt;div&gt;company&lt;/div&gt;" style="rounded=1;whiteSpace=wrap;html=1;" vertex="1" parent="1">
          <mxGeometry x="490" y="90" width="120" height="60" as="geometry" />
        </mxCell>
        <mxCell id="TobcAlVNWYBcbn0BNooz-8" value="location" style="rounded=1;whiteSpace=wrap;html=1;" vertex="1" parent="1">
          <mxGeometry x="800" y="90" width="120" height="60" as="geometry" />
        </mxCell>
        <mxCell id="TobcAlVNWYBcbn0BNooz-14" style="edgeStyle=orthogonalEdgeStyle;rounded=0;orthogonalLoop=1;jettySize=auto;html=1;entryX=0.25;entryY=0;entryDx=0;entryDy=0;" edge="1" parent="1" source="TobcAlVNWYBcbn0BNooz-11" target="TobcAlVNWYBcbn0BNooz-8">
          <mxGeometry relative="1" as="geometry" />
        </mxCell>
        <mxCell id="TobcAlVNWYBcbn0BNooz-16" value="1 to 1" style="edgeLabel;html=1;align=center;verticalAlign=middle;resizable=0;points=[];" vertex="1" connectable="0" parent="TobcAlVNWYBcbn0BNooz-14">
          <mxGeometry x="0.5415" y="4" relative="1" as="geometry">
            <mxPoint as="offset" />
          </mxGeometry>
        </mxCell>
        <mxCell id="TobcAlVNWYBcbn0BNooz-23" style="edgeStyle=orthogonalEdgeStyle;rounded=0;orthogonalLoop=1;jettySize=auto;html=1;entryX=0.7;entryY=0;entryDx=0;entryDy=0;entryPerimeter=0;" edge="1" parent="1" source="TobcAlVNWYBcbn0BNooz-11" target="TobcAlVNWYBcbn0BNooz-4">
          <mxGeometry relative="1" as="geometry" />
        </mxCell>
        <mxCell id="TobcAlVNWYBcbn0BNooz-24" value="1 to 1" style="edgeLabel;html=1;align=center;verticalAlign=middle;resizable=0;points=[];" vertex="1" connectable="0" parent="TobcAlVNWYBcbn0BNooz-23">
          <mxGeometry x="-0.4432" relative="1" as="geometry">
            <mxPoint as="offset" />
          </mxGeometry>
        </mxCell>
        <mxCell id="TobcAlVNWYBcbn0BNooz-11" value="adderss" style="rounded=1;whiteSpace=wrap;html=1;" vertex="1" parent="1">
          <mxGeometry x="650" y="-40" width="120" height="60" as="geometry" />
        </mxCell>
        <mxCell id="TobcAlVNWYBcbn0BNooz-18" value="1 to 1" style="edgeStyle=orthogonalEdgeStyle;rounded=0;orthogonalLoop=1;jettySize=auto;html=1;" edge="1" parent="1" source="TobcAlVNWYBcbn0BNooz-17" target="TobcAlVNWYBcbn0BNooz-4">
          <mxGeometry relative="1" as="geometry" />
        </mxCell>
        <mxCell id="TobcAlVNWYBcbn0BNooz-19" style="edgeStyle=orthogonalEdgeStyle;rounded=0;orthogonalLoop=1;jettySize=auto;html=1;" edge="1" parent="1" source="TobcAlVNWYBcbn0BNooz-17" target="TobcAlVNWYBcbn0BNooz-8">
          <mxGeometry relative="1" as="geometry" />
        </mxCell>
        <mxCell id="TobcAlVNWYBcbn0BNooz-20" value="1 to 1" style="edgeLabel;html=1;align=center;verticalAlign=middle;resizable=0;points=[];" vertex="1" connectable="0" parent="TobcAlVNWYBcbn0BNooz-19">
          <mxGeometry x="-0.0429" relative="1" as="geometry">
            <mxPoint as="offset" />
          </mxGeometry>
        </mxCell>
        <mxCell id="TobcAlVNWYBcbn0BNooz-17" value="image" style="rounded=1;whiteSpace=wrap;html=1;" vertex="1" parent="1">
          <mxGeometry x="490" y="-110" width="120" height="60" as="geometry" />
        </mxCell>
        <mxCell id="TobcAlVNWYBcbn0BNooz-25" style="edgeStyle=orthogonalEdgeStyle;rounded=0;orthogonalLoop=1;jettySize=auto;html=1;entryX=0.5;entryY=1;entryDx=0;entryDy=0;" edge="1" parent="1" source="TobcAlVNWYBcbn0BNooz-21" target="TobcAlVNWYBcbn0BNooz-4">
          <mxGeometry relative="1" as="geometry" />
        </mxCell>
        <mxCell id="TobcAlVNWYBcbn0BNooz-26" value="1 to many (FK)" style="edgeLabel;html=1;align=center;verticalAlign=middle;resizable=0;points=[];" vertex="1" connectable="0" parent="TobcAlVNWYBcbn0BNooz-25">
          <mxGeometry x="-0.2571" y="2" relative="1" as="geometry">
            <mxPoint as="offset" />
          </mxGeometry>
        </mxCell>
        <mxCell id="TobcAlVNWYBcbn0BNooz-27" style="edgeStyle=orthogonalEdgeStyle;rounded=0;orthogonalLoop=1;jettySize=auto;html=1;entryX=0.5;entryY=1;entryDx=0;entryDy=0;" edge="1" parent="1" source="TobcAlVNWYBcbn0BNooz-21" target="TobcAlVNWYBcbn0BNooz-8">
          <mxGeometry relative="1" as="geometry" />
        </mxCell>
        <mxCell id="TobcAlVNWYBcbn0BNooz-28" value="Text" style="edgeLabel;html=1;align=center;verticalAlign=middle;resizable=0;points=[];" vertex="1" connectable="0" parent="TobcAlVNWYBcbn0BNooz-27">
          <mxGeometry x="0.0524" relative="1" as="geometry">
            <mxPoint as="offset" />
          </mxGeometry>
        </mxCell>
        <mxCell id="TobcAlVNWYBcbn0BNooz-21" value="product" style="rounded=1;whiteSpace=wrap;html=1;" vertex="1" parent="1">
          <mxGeometry x="490" y="290" width="120" height="60" as="geometry" />
        </mxCell>
      </root>
    </mxGraphModel>
  </diagram>
</mxfile>
